<svg width="58" height="29" viewBox="0 0 58 29" fill="none" xmlns="http://www.w3.org/2000/svg">
<g clip-path="url(#clip0_26_158)">
<path d="M45.741 28.4709C44.438 28.4929 40.289 28.2029 36.427 27.1399C31.913 25.8979 26.306 25.9029 21.79 27.1399C17.898 28.2059 14.269 28.4939 12.476 28.4709C5.642 28.3829 0.5 21.5199 0.5 14.4989C0.5 6.81486 6.787 0.526855 14.472 0.526855H43.746C51.43 0.527855 57.5 6.81486 57.5 14.4989C57.5 21.5199 52.575 28.3549 45.741 28.4709Z" fill="#CBD4D8"/>
<path d="M27.5 4.52783H32.132" stroke="#AFB6BB" stroke-width="2" stroke-miterlimit="10" stroke-linecap="round"/>
<path d="M36.5 17.5278C38.1569 17.5278 39.5 16.1847 39.5 14.5278C39.5 12.871 38.1569 11.5278 36.5 11.5278C34.8431 11.5278 33.5 12.871 33.5 14.5278C33.5 16.1847 34.8431 17.5278 36.5 17.5278Z" fill="#43B05C"/>
<path d="M50.5 17.5278C52.1569 17.5278 53.5 16.1847 53.5 14.5278C53.5 12.871 52.1569 11.5278 50.5 11.5278C48.8431 11.5278 47.5 12.871 47.5 14.5278C47.5 16.1847 48.8431 17.5278 50.5 17.5278Z" fill="#DD352E"/>
<path d="M43.5 24.5278C45.1569 24.5278 46.5 23.1847 46.5 21.5278C46.5 19.871 45.1569 18.5278 43.5 18.5278C41.8431 18.5278 40.5 19.871 40.5 21.5278C40.5 23.1847 41.8431 24.5278 43.5 24.5278Z" fill="#EBBA16"/>
<path d="M43.5 10.5278C45.1569 10.5278 46.5 9.18469 46.5 7.52783C46.5 5.87098 45.1569 4.52783 43.5 4.52783C41.8431 4.52783 40.5 5.87098 40.5 7.52783C40.5 9.18469 41.8431 10.5278 43.5 10.5278Z" fill="#366DB6"/>
<path d="M22.5 11.5278H18.5V7.52783H12.5V11.5278H8.5V17.5278H12.5V21.5278H18.5V17.5278H22.5V11.5278Z" fill="#38454F"/>
</g>
<defs>
<clipPath id="clip0_26_158">
<rect width="57" height="29" fill="white" transform="translate(0.5)"/>
</clipPath>
</defs>
</svg>
